<?xml version="1.0" standalone="no"?><!DOCTYPE svg PUBLIC "-//W3C//DTD SVG 1.1//EN" "http://www.w3.org/Graphics/SVG/1.1/DTD/svg11.dtd"><svg t="1647267248480" class="icon" viewBox="0 0 1024 1024" version="1.1" xmlns="http://www.w3.org/2000/svg" p-id="20203" xmlns:xlink="http://www.w3.org/1999/xlink" width="200" height="200"><defs><style type="text/css">@font-face { font-weight: 400; font-style: normal; font-family: Circular-Loom; src: url("https://cdn.loom.com/assets/fonts/circular/CircularXXWeb-Book-cd7d2bcec649b1243839a15d5eb8f0a3.woff2") format("woff2"); }
@font-face { font-weight: 500; font-style: normal; font-family: Circular-Loom; src: url("https://cdn.loom.com/assets/fonts/circular/CircularXXWeb-Medium-d74eac43c78bd5852478998ce63dceb3.woff2") format("woff2"); }
@font-face { font-weight: 700; font-style: normal; font-family: Circular-Loom; src: url("https://cdn.loom.com/assets/fonts/circular/CircularXXWeb-Bold-83b8ceaf77f49c7cffa44107561909e4.woff2") format("woff2"); }
@font-face { font-weight: 900; font-style: normal; font-family: Circular-Loom; src: url("https://cdn.loom.com/assets/fonts/circular/CircularXXWeb-Black-bf067ecb8aa777ceb6df7d72226febca.woff2") format("woff2"); }
</style></defs><path d="M1006.3 923.5c21.6 23.9 19.7 60.7-4.2 82.3-22.1 20-55.8 20-78 0.1L512.8 594l-411.4 411.9c-22.7 22.7-59.6 22.7-82.3 0-22.7-22.7-22.7-59.6 0-82.3l411.4-411.9L19.1 99.8c-22.4-23-21.9-59.9 1.2-82.3 22.6-21.9 58.5-21.9 81.1 0l411.4 411.8L924.1 17.5c23.5-21.9 60.3-20.7 82.3 2.8 20.9 22.4 20.9 57.2 0 79.5l-411.2 412 411.1 411.7z" p-id="20204" fill="#1A1A1A"></path></svg>