<?xml version="1.0" standalone="no"?><!DOCTYPE svg PUBLIC "-//W3C//DTD SVG 1.1//EN" "http://www.w3.org/Graphics/SVG/1.1/DTD/svg11.dtd"><svg t="1647746013768" class="icon" viewBox="0 0 1024 1024" version="1.1" xmlns="http://www.w3.org/2000/svg" p-id="16977" xmlns:xlink="http://www.w3.org/1999/xlink" width="200" height="200"><defs><style type="text/css">@font-face { font-weight: 400; font-style: normal; font-family: Circular-Loom; src: url("https://cdn.loom.com/assets/fonts/circular/CircularXXWeb-Book-cd7d2bcec649b1243839a15d5eb8f0a3.woff2") format("woff2"); }
@font-face { font-weight: 500; font-style: normal; font-family: Circular-Loom; src: url("https://cdn.loom.com/assets/fonts/circular/CircularXXWeb-Medium-d74eac43c78bd5852478998ce63dceb3.woff2") format("woff2"); }
@font-face { font-weight: 700; font-style: normal; font-family: Circular-Loom; src: url("https://cdn.loom.com/assets/fonts/circular/CircularXXWeb-Bold-83b8ceaf77f49c7cffa44107561909e4.woff2") format("woff2"); }
@font-face { font-weight: 900; font-style: normal; font-family: Circular-Loom; src: url("https://cdn.loom.com/assets/fonts/circular/CircularXXWeb-Black-bf067ecb8aa777ceb6df7d72226febca.woff2") format("woff2"); }
</style></defs><path d="M512 832c-156.448 0-296.021333-98.730667-418.410667-291.605333a52.938667 52.938667 0 0 1 0-56.789334C215.978667 290.730667 355.552 192 512 192c156.448 0 296.021333 98.730667 418.410667 291.605333a52.938667 52.938667 0 0 1 0 56.789334C808.021333 733.269333 668.448 832 512 832z m0-576c-129.514667 0-249.461333 83.850667-360.117333 256C262.538667 684.149333 382.485333 768 512 768c129.514667 0 249.461333-83.850667 360.117333-256C761.461333 339.850667 641.514667 256 512 256z m0 405.333333c-83.210667 0-150.666667-66.858667-150.666667-149.333333S428.789333 362.666667 512 362.666667s150.666667 66.858667 150.666667 149.333333S595.210667 661.333333 512 661.333333z m0-64c47.552 0 86.101333-38.208 86.101333-85.333333S559.552 426.666667 512 426.666667c-47.552 0-86.101333 38.208-86.101333 85.333333s38.549333 85.333333 86.101333 85.333333z" p-id="16978" fill="#E9E9E9"></path></svg>