<?xml version="1.0" standalone="no"?><!DOCTYPE svg PUBLIC "-//W3C//DTD SVG 1.1//EN" "http://www.w3.org/Graphics/SVG/1.1/DTD/svg11.dtd"><svg t="1647666917308" class="icon" viewBox="0 0 1024 1024" version="1.1" xmlns="http://www.w3.org/2000/svg" p-id="8887" xmlns:xlink="http://www.w3.org/1999/xlink" width="200" height="200"><defs><style type="text/css">@font-face { font-weight: 400; font-style: normal; font-family: Circular-Loom; src: url("https://cdn.loom.com/assets/fonts/circular/CircularXXWeb-Book-cd7d2bcec649b1243839a15d5eb8f0a3.woff2") format("woff2"); }
@font-face { font-weight: 500; font-style: normal; font-family: Circular-Loom; src: url("https://cdn.loom.com/assets/fonts/circular/CircularXXWeb-Medium-d74eac43c78bd5852478998ce63dceb3.woff2") format("woff2"); }
@font-face { font-weight: 700; font-style: normal; font-family: Circular-Loom; src: url("https://cdn.loom.com/assets/fonts/circular/CircularXXWeb-Bold-83b8ceaf77f49c7cffa44107561909e4.woff2") format("woff2"); }
@font-face { font-weight: 900; font-style: normal; font-family: Circular-Loom; src: url("https://cdn.loom.com/assets/fonts/circular/CircularXXWeb-Black-bf067ecb8aa777ceb6df7d72226febca.woff2") format("woff2"); }
</style></defs><path d="M887.222857 299.154286a222.354286 222.354286 0 0 0-370.468571-3.657143l2.56 4.022857-43.885715 75.337143 42.788572 76.068571L475.428571 527.36l42.788572 75.702857L475.428571 678.765714l42.788572 76.068572-39.131429 69.851428a239.908571 239.908571 0 0 0 166.4-38.765714l43.885715-31.085714a789.211429 789.211429 0 0 0 163.84-151.405715 310.125714 310.125714 0 0 0 65.828571-151.405714 296.594286 296.594286 0 0 0 1.828571-31.451428 219.428571 219.428571 0 0 0-33.645714-121.417143z" fill="#D65B5B" p-id="8888"></path><path d="M463.36 375.222857l42.788571-76.068571-13.165714-23.771429a234.788571 234.788571 0 0 0-65.462857-52.662857 222.354286 222.354286 0 0 0-326.217143 196.754286 263.68 263.68 0 0 0 22.674286 107.154285 464.822857 464.822857 0 0 0 116.297143 151.405715 1159.314286 1159.314286 0 0 0 137.142857 106.422857 238.08 238.08 0 0 0 90.697143 36.571428l36.571428-66.925714-42.788571-76.434286 42.788571-76.068571-42.788571-75.702857 42.788571-75.702857z" fill="#D65B5B" p-id="8889"></path></svg>