<?xml version="1.0" standalone="no"?><!DOCTYPE svg PUBLIC "-//W3C//DTD SVG 1.1//EN" "http://www.w3.org/Graphics/SVG/1.1/DTD/svg11.dtd"><svg t="1647745887331" class="icon" viewBox="0 0 1024 1024" version="1.1" xmlns="http://www.w3.org/2000/svg" p-id="16084" xmlns:xlink="http://www.w3.org/1999/xlink" width="200" height="200"><defs><style type="text/css">@font-face { font-weight: 400; font-style: normal; font-family: Circular-Loom; src: url("https://cdn.loom.com/assets/fonts/circular/CircularXXWeb-Book-cd7d2bcec649b1243839a15d5eb8f0a3.woff2") format("woff2"); }
@font-face { font-weight: 500; font-style: normal; font-family: Circular-Loom; src: url("https://cdn.loom.com/assets/fonts/circular/CircularXXWeb-Medium-d74eac43c78bd5852478998ce63dceb3.woff2") format("woff2"); }
@font-face { font-weight: 700; font-style: normal; font-family: Circular-Loom; src: url("https://cdn.loom.com/assets/fonts/circular/CircularXXWeb-Bold-83b8ceaf77f49c7cffa44107561909e4.woff2") format("woff2"); }
@font-face { font-weight: 900; font-style: normal; font-family: Circular-Loom; src: url("https://cdn.loom.com/assets/fonts/circular/CircularXXWeb-Black-bf067ecb8aa777ceb6df7d72226febca.woff2") format("woff2"); }
</style></defs><path d="M857.28 344.992h-264.832c12.576-44.256 18.944-83.584 18.944-118.208 0-78.56-71.808-153.792-140.544-143.808-60.608 8.8-89.536 59.904-89.536 125.536v59.296c0 76.064-58.208 140.928-132.224 148.064l-117.728-0.192A67.36 67.36 0 0 0 64 483.04V872c0 37.216 30.144 67.36 67.36 67.36h652.192a102.72 102.72 0 0 0 100.928-83.584l73.728-388.96a102.72 102.72 0 0 0-100.928-121.824zM128 872V483.04c0-1.856 1.504-3.36 3.36-3.36H208v395.68H131.36A3.36 3.36 0 0 1 128 872z m767.328-417.088l-73.728 388.96a38.72 38.72 0 0 1-38.048 31.488H272V476.864a213.312 213.312 0 0 0 173.312-209.088V208.512c0-37.568 12.064-58.912 34.72-62.176 27.04-3.936 67.36 38.336 67.36 80.48 0 37.312-9.504 84-28.864 139.712a32 32 0 0 0 30.24 42.496h308.512a38.72 38.72 0 0 1 38.048 45.888z" p-id="16085" fill="#E9E9E9"></path></svg>